<mxfile host="app.diagrams.net" modified="2022-01-19T01:28:12.622Z" agent="5.0 (Windows NT 10.0; Win64; x64) AppleWebKit/537.36 (KHTML, like Gecko) Chrome/97.0.4692.71 Safari/537.36" etag="P_koUsAp-imV0YvO83Xr" version="16.0.0" type="github">
  <diagram id="M2YjryWI9B-7y7MoLCDW" name="Page-1">
    <mxGraphModel dx="2254" dy="620" grid="1" gridSize="10" guides="1" tooltips="1" connect="1" arrows="1" fold="1" page="1" pageScale="1" pageWidth="1169" pageHeight="827" math="0" shadow="0">
      <root>
        <mxCell id="0" />
        <mxCell id="1" parent="0" />
        <mxCell id="h_EQ8MxZTrFpXcFM9TLe-1" value="&lt;p style=&quot;margin: 0px ; margin-top: 4px ; text-align: center&quot;&gt;&lt;b&gt;Monitor&lt;/b&gt;&lt;/p&gt;&lt;hr size=&quot;1&quot;&gt;&lt;p style=&quot;margin: 0px ; margin-left: 4px&quot;&gt;&lt;br&gt;&lt;/p&gt;" style="verticalAlign=top;align=left;overflow=fill;fontSize=12;fontFamily=Helvetica;html=1;" vertex="1" parent="1">
          <mxGeometry x="590" y="40" width="360" height="670" as="geometry" />
        </mxCell>
        <mxCell id="h_EQ8MxZTrFpXcFM9TLe-2" value="&lt;p style=&quot;margin: 0px ; margin-top: 4px ; text-align: center&quot;&gt;&lt;b&gt;Professor&lt;/b&gt;&lt;/p&gt;&lt;hr size=&quot;1&quot;&gt;&lt;p style=&quot;margin: 0px ; margin-left: 4px&quot;&gt;&lt;br&gt;&lt;/p&gt;" style="verticalAlign=top;align=left;overflow=fill;fontSize=12;fontFamily=Helvetica;html=1;" vertex="1" parent="1">
          <mxGeometry x="230" y="40" width="360" height="670" as="geometry" />
        </mxCell>
        <mxCell id="h_EQ8MxZTrFpXcFM9TLe-3" value="" style="ellipse;html=1;shape=startState;fillColor=#000000;strokeColor=#ff0000;" vertex="1" parent="1">
          <mxGeometry x="280" y="105" width="30" height="30" as="geometry" />
        </mxCell>
        <mxCell id="h_EQ8MxZTrFpXcFM9TLe-4" value="" style="edgeStyle=orthogonalEdgeStyle;html=1;verticalAlign=bottom;endArrow=open;endSize=8;strokeColor=#000000;rounded=0;" edge="1" parent="1" source="h_EQ8MxZTrFpXcFM9TLe-3" target="h_EQ8MxZTrFpXcFM9TLe-5">
          <mxGeometry relative="1" as="geometry">
            <mxPoint x="310" y="195" as="targetPoint" />
          </mxGeometry>
        </mxCell>
        <mxCell id="h_EQ8MxZTrFpXcFM9TLe-5" value="Acessar sistema" style="rounded=1;whiteSpace=wrap;html=1;arcSize=40;fontColor=#000000;fillColor=#ffffc0;strokeColor=#ff0000;" vertex="1" parent="1">
          <mxGeometry x="350" y="125" width="120" height="40" as="geometry" />
        </mxCell>
        <mxCell id="h_EQ8MxZTrFpXcFM9TLe-6" value="" style="edgeStyle=orthogonalEdgeStyle;html=1;verticalAlign=bottom;endArrow=open;endSize=8;strokeColor=#000000;rounded=0;exitX=0.5;exitY=1;exitDx=0;exitDy=0;entryX=0.507;entryY=0.448;entryDx=0;entryDy=0;entryPerimeter=0;" edge="1" parent="1" source="h_EQ8MxZTrFpXcFM9TLe-5" target="h_EQ8MxZTrFpXcFM9TLe-7">
          <mxGeometry relative="1" as="geometry">
            <mxPoint x="400" y="212" as="targetPoint" />
            <Array as="points" />
          </mxGeometry>
        </mxCell>
        <mxCell id="h_EQ8MxZTrFpXcFM9TLe-7" value="" style="shape=line;html=1;strokeWidth=6;strokeColor=#000000;" vertex="1" parent="1">
          <mxGeometry x="360" y="205" width="100" height="10" as="geometry" />
        </mxCell>
        <mxCell id="h_EQ8MxZTrFpXcFM9TLe-8" value="Enviar artigo para o gerente" style="rounded=1;whiteSpace=wrap;html=1;arcSize=50;fontColor=#000000;fillColor=#ffffc0;strokeColor=#ff0000;" vertex="1" parent="1">
          <mxGeometry x="260" y="265" width="120" height="40" as="geometry" />
        </mxCell>
        <mxCell id="h_EQ8MxZTrFpXcFM9TLe-9" style="edgeStyle=orthogonalEdgeStyle;rounded=0;orthogonalLoop=1;jettySize=auto;html=1;exitX=0.5;exitY=1;exitDx=0;exitDy=0;strokeColor=#000000;entryX=0.75;entryY=0.5;entryDx=0;entryDy=0;entryPerimeter=0;" edge="1" parent="1" source="h_EQ8MxZTrFpXcFM9TLe-10" target="h_EQ8MxZTrFpXcFM9TLe-20">
          <mxGeometry relative="1" as="geometry" />
        </mxCell>
        <mxCell id="h_EQ8MxZTrFpXcFM9TLe-10" value="Cadastrar" style="rounded=1;whiteSpace=wrap;html=1;arcSize=40;fontColor=#000000;fillColor=#ffffc0;strokeColor=#ff0000;" vertex="1" parent="1">
          <mxGeometry x="720" y="265" width="120" height="40" as="geometry" />
        </mxCell>
        <mxCell id="h_EQ8MxZTrFpXcFM9TLe-11" value="" style="edgeStyle=orthogonalEdgeStyle;html=1;verticalAlign=bottom;endArrow=classic;endSize=8;strokeColor=#000000;rounded=0;exitX=0.25;exitY=0.5;exitDx=0;exitDy=0;entryX=0.5;entryY=0;entryDx=0;entryDy=0;exitPerimeter=0;endFill=1;" edge="1" parent="1" target="h_EQ8MxZTrFpXcFM9TLe-8">
          <mxGeometry relative="1" as="geometry">
            <mxPoint x="383.0000000000001" y="275" as="targetPoint" />
            <mxPoint x="388" y="210" as="sourcePoint" />
            <Array as="points">
              <mxPoint x="383" y="210" />
              <mxPoint x="383" y="235" />
              <mxPoint x="320" y="235" />
            </Array>
          </mxGeometry>
        </mxCell>
        <mxCell id="h_EQ8MxZTrFpXcFM9TLe-12" value="" style="edgeStyle=orthogonalEdgeStyle;html=1;verticalAlign=bottom;endArrow=open;endSize=8;strokeColor=#000000;rounded=0;exitX=0.75;exitY=0.5;exitDx=0;exitDy=0;entryX=0.5;entryY=0;entryDx=0;entryDy=0;exitPerimeter=0;" edge="1" parent="1" source="h_EQ8MxZTrFpXcFM9TLe-7" target="h_EQ8MxZTrFpXcFM9TLe-10">
          <mxGeometry relative="1" as="geometry">
            <mxPoint x="420.70000000000005" y="219.48000000000002" as="targetPoint" />
            <mxPoint x="420.0000000000001" y="175" as="sourcePoint" />
            <Array as="points">
              <mxPoint x="450" y="210" />
              <mxPoint x="450" y="219" />
              <mxPoint x="780" y="219" />
            </Array>
          </mxGeometry>
        </mxCell>
        <mxCell id="h_EQ8MxZTrFpXcFM9TLe-13" value="&lt;p style=&quot;margin: 0px ; margin-top: 4px ; text-align: center&quot;&gt;&lt;b&gt;SecretÃ¡rio&lt;/b&gt;&lt;/p&gt;&lt;hr size=&quot;1&quot;&gt;&lt;p style=&quot;margin: 0px ; margin-left: 4px&quot;&gt;&lt;br&gt;&lt;/p&gt;" style="verticalAlign=top;align=left;overflow=fill;fontSize=12;fontFamily=Helvetica;html=1;" vertex="1" parent="1">
          <mxGeometry x="-120" y="40" width="360" height="670" as="geometry" />
        </mxCell>
        <mxCell id="h_EQ8MxZTrFpXcFM9TLe-14" style="edgeStyle=orthogonalEdgeStyle;rounded=0;orthogonalLoop=1;jettySize=auto;html=1;exitX=0.5;exitY=1;exitDx=0;exitDy=0;entryX=0.25;entryY=0.5;entryDx=0;entryDy=0;entryPerimeter=0;strokeColor=#000000;" edge="1" parent="1" source="h_EQ8MxZTrFpXcFM9TLe-15" target="h_EQ8MxZTrFpXcFM9TLe-20">
          <mxGeometry relative="1" as="geometry" />
        </mxCell>
        <mxCell id="h_EQ8MxZTrFpXcFM9TLe-15" value="Distribuir artigo para revisores" style="rounded=1;whiteSpace=wrap;html=1;arcSize=50;fontColor=#000000;fillColor=#ffffc0;strokeColor=#ff0000;" vertex="1" parent="1">
          <mxGeometry x="10" y="265" width="120" height="40" as="geometry" />
        </mxCell>
        <mxCell id="h_EQ8MxZTrFpXcFM9TLe-16" value="" style="edgeStyle=orthogonalEdgeStyle;html=1;verticalAlign=bottom;endArrow=classic;endSize=8;strokeColor=#000000;rounded=0;exitX=0;exitY=0.5;exitDx=0;exitDy=0;entryX=1;entryY=0.5;entryDx=0;entryDy=0;endFill=1;" edge="1" parent="1" source="h_EQ8MxZTrFpXcFM9TLe-8" target="h_EQ8MxZTrFpXcFM9TLe-15">
          <mxGeometry relative="1" as="geometry">
            <mxPoint x="80" y="205" as="targetPoint" />
            <mxPoint x="148" y="150" as="sourcePoint" />
            <Array as="points">
              <mxPoint x="148" y="285" />
              <mxPoint x="148" y="285" />
            </Array>
          </mxGeometry>
        </mxCell>
        <mxCell id="h_EQ8MxZTrFpXcFM9TLe-17" style="edgeStyle=orthogonalEdgeStyle;rounded=0;orthogonalLoop=1;jettySize=auto;html=1;exitX=0.5;exitY=1;exitDx=0;exitDy=0;entryX=0.5;entryY=0;entryDx=0;entryDy=0;strokeColor=#000000;" edge="1" parent="1" source="h_EQ8MxZTrFpXcFM9TLe-18" target="h_EQ8MxZTrFpXcFM9TLe-22">
          <mxGeometry relative="1" as="geometry" />
        </mxCell>
        <mxCell id="h_EQ8MxZTrFpXcFM9TLe-18" value="Acessar artigos" style="rounded=1;whiteSpace=wrap;html=1;arcSize=50;fontColor=#000000;fillColor=#ffffc0;strokeColor=#ff0000;" vertex="1" parent="1">
          <mxGeometry x="695" y="430" width="120" height="40" as="geometry" />
        </mxCell>
        <mxCell id="h_EQ8MxZTrFpXcFM9TLe-19" value="" style="edgeStyle=orthogonalEdgeStyle;rounded=0;orthogonalLoop=1;jettySize=auto;html=1;strokeColor=#000000;exitX=0.498;exitY=0.659;exitDx=0;exitDy=0;exitPerimeter=0;" edge="1" parent="1" source="h_EQ8MxZTrFpXcFM9TLe-20" target="h_EQ8MxZTrFpXcFM9TLe-18">
          <mxGeometry relative="1" as="geometry" />
        </mxCell>
        <mxCell id="h_EQ8MxZTrFpXcFM9TLe-20" value="" style="shape=line;html=1;strokeWidth=6;strokeColor=#000000;" vertex="1" parent="1">
          <mxGeometry x="705" y="380" width="100" height="10" as="geometry" />
        </mxCell>
        <mxCell id="h_EQ8MxZTrFpXcFM9TLe-21" style="edgeStyle=orthogonalEdgeStyle;rounded=0;orthogonalLoop=1;jettySize=auto;html=1;exitX=0.5;exitY=1;exitDx=0;exitDy=0;entryX=0.5;entryY=0;entryDx=0;entryDy=0;endArrow=classic;endFill=1;strokeColor=#000000;" edge="1" parent="1" source="h_EQ8MxZTrFpXcFM9TLe-22" target="h_EQ8MxZTrFpXcFM9TLe-24">
          <mxGeometry relative="1" as="geometry" />
        </mxCell>
        <mxCell id="h_EQ8MxZTrFpXcFM9TLe-22" value="Revisar Artigos" style="rounded=1;whiteSpace=wrap;html=1;arcSize=50;fontColor=#000000;fillColor=#ffffc0;strokeColor=#ff0000;" vertex="1" parent="1">
          <mxGeometry x="695" y="500" width="120" height="40" as="geometry" />
        </mxCell>
        <mxCell id="h_EQ8MxZTrFpXcFM9TLe-23" value="" style="edgeStyle=orthogonalEdgeStyle;rounded=0;orthogonalLoop=1;jettySize=auto;html=1;endArrow=classic;endFill=1;strokeColor=#000000;entryX=1;entryY=0.5;entryDx=0;entryDy=0;" edge="1" parent="1" source="h_EQ8MxZTrFpXcFM9TLe-24" target="h_EQ8MxZTrFpXcFM9TLe-26">
          <mxGeometry relative="1" as="geometry">
            <Array as="points">
              <mxPoint x="630" y="590" />
              <mxPoint x="630" y="420" />
            </Array>
          </mxGeometry>
        </mxCell>
        <mxCell id="h_EQ8MxZTrFpXcFM9TLe-24" value="Enviar revisÃ£o" style="rounded=1;whiteSpace=wrap;html=1;arcSize=50;fontColor=#000000;fillColor=#ffffc0;strokeColor=#ff0000;" vertex="1" parent="1">
          <mxGeometry x="695" y="570" width="120" height="40" as="geometry" />
        </mxCell>
        <mxCell id="h_EQ8MxZTrFpXcFM9TLe-25" style="edgeStyle=orthogonalEdgeStyle;rounded=0;orthogonalLoop=1;jettySize=auto;html=1;exitX=0.5;exitY=1;exitDx=0;exitDy=0;entryX=0;entryY=0.5;entryDx=0;entryDy=0;endArrow=classic;endFill=1;strokeColor=#000000;" edge="1" parent="1" source="h_EQ8MxZTrFpXcFM9TLe-26" target="h_EQ8MxZTrFpXcFM9TLe-31">
          <mxGeometry relative="1" as="geometry" />
        </mxCell>
        <mxCell id="h_EQ8MxZTrFpXcFM9TLe-26" value="Informar os autores" style="rounded=1;whiteSpace=wrap;html=1;arcSize=50;fontColor=#000000;fillColor=#ffffc0;strokeColor=#ff0000;" vertex="1" parent="1">
          <mxGeometry x="10" y="400" width="120" height="40" as="geometry" />
        </mxCell>
        <mxCell id="h_EQ8MxZTrFpXcFM9TLe-27" style="edgeStyle=orthogonalEdgeStyle;rounded=0;orthogonalLoop=1;jettySize=auto;html=1;exitX=1;exitY=0.5;exitDx=0;exitDy=0;entryX=0.5;entryY=0;entryDx=0;entryDy=0;endArrow=classic;endFill=1;strokeColor=#000000;" edge="1" parent="1" source="h_EQ8MxZTrFpXcFM9TLe-31" target="h_EQ8MxZTrFpXcFM9TLe-32">
          <mxGeometry relative="1" as="geometry">
            <Array as="points">
              <mxPoint x="505" y="484" />
            </Array>
          </mxGeometry>
        </mxCell>
        <mxCell id="h_EQ8MxZTrFpXcFM9TLe-28" value="NÃ£o" style="edgeLabel;html=1;align=center;verticalAlign=middle;resizable=0;points=[];" vertex="1" connectable="0" parent="h_EQ8MxZTrFpXcFM9TLe-27">
          <mxGeometry x="-0.7502" y="2" relative="1" as="geometry">
            <mxPoint as="offset" />
          </mxGeometry>
        </mxCell>
        <mxCell id="h_EQ8MxZTrFpXcFM9TLe-29" style="edgeStyle=orthogonalEdgeStyle;rounded=0;orthogonalLoop=1;jettySize=auto;html=1;exitX=0.5;exitY=1;exitDx=0;exitDy=0;entryX=0.5;entryY=0;entryDx=0;entryDy=0;endArrow=classic;endFill=1;strokeColor=#000000;" edge="1" parent="1" source="h_EQ8MxZTrFpXcFM9TLe-31" target="h_EQ8MxZTrFpXcFM9TLe-34">
          <mxGeometry relative="1" as="geometry" />
        </mxCell>
        <mxCell id="h_EQ8MxZTrFpXcFM9TLe-30" value="Sim" style="edgeLabel;html=1;align=center;verticalAlign=middle;resizable=0;points=[];" vertex="1" connectable="0" parent="h_EQ8MxZTrFpXcFM9TLe-29">
          <mxGeometry x="-0.2194" y="2" relative="1" as="geometry">
            <mxPoint as="offset" />
          </mxGeometry>
        </mxCell>
        <mxCell id="h_EQ8MxZTrFpXcFM9TLe-31" value="Artigo aceito?" style="rhombus;whiteSpace=wrap;html=1;fillColor=#ffffc0;strokeColor=#ff0000;labelBackgroundColor=#FFE599;" vertex="1" parent="1">
          <mxGeometry x="340" y="454" width="120" height="60" as="geometry" />
        </mxCell>
        <mxCell id="h_EQ8MxZTrFpXcFM9TLe-32" value="" style="ellipse;html=1;shape=endState;fillColor=#000000;strokeColor=#ff0000;labelBackgroundColor=#FFE599;" vertex="1" parent="1">
          <mxGeometry x="490" y="640" width="30" height="30" as="geometry" />
        </mxCell>
        <mxCell id="h_EQ8MxZTrFpXcFM9TLe-33" style="edgeStyle=orthogonalEdgeStyle;rounded=0;orthogonalLoop=1;jettySize=auto;html=1;exitX=0.5;exitY=1;exitDx=0;exitDy=0;entryX=0;entryY=0.5;entryDx=0;entryDy=0;endArrow=classic;endFill=1;strokeColor=#000000;" edge="1" parent="1" source="h_EQ8MxZTrFpXcFM9TLe-34" target="h_EQ8MxZTrFpXcFM9TLe-32">
          <mxGeometry relative="1" as="geometry" />
        </mxCell>
        <mxCell id="h_EQ8MxZTrFpXcFM9TLe-34" value="Publicar o artigo" style="rounded=1;whiteSpace=wrap;html=1;arcSize=50;fontColor=#000000;fillColor=#ffffc0;strokeColor=#ff0000;" vertex="1" parent="1">
          <mxGeometry x="340" y="570" width="120" height="40" as="geometry" />
        </mxCell>
      </root>
    </mxGraphModel>
  </diagram>
</mxfile>
